<svg xmlns="http://www.w3.org/2000/svg" xmlns:xlink="http://www.w3.org/1999/xlink" width="75" zoomAndPan="magnify" viewBox="0 0 56.25 30.000001" height="40" preserveAspectRatio="xMidYMid meet" version="1.0"><defs><g/><clipPath id="5e175594b2"><path d="M 10.523438 7.414062 L 13.734375 7.414062 L 13.734375 10.625 L 10.523438 10.625 Z M 10.523438 7.414062 " clip-rule="nonzero"/></clipPath><clipPath id="fbebdb94d0"><path d="M 12.128906 7.414062 C 11.242188 7.414062 10.523438 8.132812 10.523438 9.019531 C 10.523438 9.90625 11.242188 10.625 12.128906 10.625 C 13.015625 10.625 13.734375 9.90625 13.734375 9.019531 C 13.734375 8.132812 13.015625 7.414062 12.128906 7.414062 Z M 12.128906 7.414062 " clip-rule="nonzero"/></clipPath><clipPath id="1729777292"><path d="M 0.542969 10.03125 L 12.128906 10.03125 L 12.128906 21.617188 L 0.542969 21.617188 Z M 0.542969 10.03125 " clip-rule="nonzero"/></clipPath><clipPath id="94f0e80f49"><path d="M 6.335938 10.03125 C 3.136719 10.03125 0.542969 12.625 0.542969 15.824219 C 0.542969 19.023438 3.136719 21.617188 6.335938 21.617188 C 9.535156 21.617188 12.128906 19.023438 12.128906 15.824219 C 12.128906 12.625 9.535156 10.03125 6.335938 10.03125 Z M 6.335938 10.03125 " clip-rule="nonzero"/></clipPath><clipPath id="f1178fbda5"><path d="M 2.804688 12.292969 L 9.867188 12.292969 L 9.867188 19.355469 L 2.804688 19.355469 Z M 2.804688 12.292969 " clip-rule="nonzero"/></clipPath><clipPath id="274adf2b2d"><path d="M 6.335938 12.292969 C 4.386719 12.292969 2.804688 13.875 2.804688 15.824219 C 2.804688 17.773438 4.386719 19.355469 6.335938 19.355469 C 8.289062 19.355469 9.867188 17.773438 9.867188 15.824219 C 9.867188 13.875 8.289062 12.292969 6.335938 12.292969 Z M 6.335938 12.292969 " clip-rule="nonzero"/></clipPath><clipPath id="cf08b0e1fa"><path d="M 51 14 L 54.980469 14 L 54.980469 20 L 51 20 Z M 51 14 " clip-rule="nonzero"/></clipPath></defs><g clip-path="url(#5e175594b2)"><g clip-path="url(#fbebdb94d0)"><path fill="#edeae9" d="M 10.523438 7.414062 L 13.734375 7.414062 L 13.734375 10.625 L 10.523438 10.625 Z M 10.523438 7.414062 " fill-opacity="1" fill-rule="nonzero"/></g></g><g clip-path="url(#1729777292)"><g clip-path="url(#94f0e80f49)"><path fill="#edeae9" d="M 0.542969 10.03125 L 12.128906 10.03125 L 12.128906 21.617188 L 0.542969 21.617188 Z M 0.542969 10.03125 " fill-opacity="1" fill-rule="nonzero"/></g></g><g clip-path="url(#f1178fbda5)"><g clip-path="url(#274adf2b2d)"><path fill="#101e27" d="M 2.804688 12.292969 L 9.867188 12.292969 L 9.867188 19.355469 L 2.804688 19.355469 Z M 2.804688 12.292969 " fill-opacity="1" fill-rule="nonzero"/></g></g><g fill="#edeae9" fill-opacity="1"><g transform="translate(16.877333, 19.071841)"><g><path d="M 1.296875 0.078125 C 1.109375 0.078125 0.960938 0.0234375 0.859375 -0.078125 C 0.765625 -0.191406 0.71875 -0.34375 0.71875 -0.53125 L 0.71875 -5.984375 C 0.71875 -6.179688 0.765625 -6.332031 0.859375 -6.4375 C 0.960938 -6.539062 1.109375 -6.59375 1.296875 -6.59375 C 1.492188 -6.59375 1.640625 -6.539062 1.734375 -6.4375 C 1.835938 -6.332031 1.890625 -6.179688 1.890625 -5.984375 L 1.890625 -0.53125 C 1.890625 -0.34375 1.835938 -0.191406 1.734375 -0.078125 C 1.640625 0.0234375 1.492188 0.078125 1.296875 0.078125 Z M 1.296875 0.078125 "/></g></g></g><g fill="#edeae9" fill-opacity="1"><g transform="translate(19.487091, 19.071841)"><g><path d="M 1.171875 0.078125 C 0.984375 0.078125 0.835938 0.0234375 0.734375 -0.078125 C 0.640625 -0.179688 0.59375 -0.328125 0.59375 -0.515625 L 0.59375 -4.015625 C 0.59375 -4.203125 0.640625 -4.34375 0.734375 -4.4375 C 0.835938 -4.539062 0.984375 -4.59375 1.171875 -4.59375 C 1.347656 -4.59375 1.484375 -4.539062 1.578125 -4.4375 C 1.679688 -4.34375 1.734375 -4.203125 1.734375 -4.015625 L 1.734375 -3.390625 L 1.625 -3.609375 C 1.757812 -3.941406 1.96875 -4.191406 2.25 -4.359375 C 2.539062 -4.523438 2.867188 -4.609375 3.234375 -4.609375 C 3.597656 -4.609375 3.894531 -4.539062 4.125 -4.40625 C 4.363281 -4.269531 4.539062 -4.066406 4.65625 -3.796875 C 4.78125 -3.523438 4.84375 -3.175781 4.84375 -2.75 L 4.84375 -0.515625 C 4.84375 -0.328125 4.789062 -0.179688 4.6875 -0.078125 C 4.59375 0.0234375 4.453125 0.078125 4.265625 0.078125 C 4.078125 0.078125 3.929688 0.0234375 3.828125 -0.078125 C 3.734375 -0.179688 3.6875 -0.328125 3.6875 -0.515625 L 3.6875 -2.703125 C 3.6875 -3.054688 3.617188 -3.3125 3.484375 -3.46875 C 3.347656 -3.625 3.144531 -3.703125 2.875 -3.703125 C 2.53125 -3.703125 2.253906 -3.597656 2.046875 -3.390625 C 1.847656 -3.179688 1.75 -2.898438 1.75 -2.546875 L 1.75 -0.515625 C 1.75 -0.117188 1.554688 0.078125 1.171875 0.078125 Z M 1.171875 0.078125 "/></g></g></g><g fill="#edeae9" fill-opacity="1"><g transform="translate(24.900947, 19.071841)"><g><path d="M 2.25 0.09375 C 1.988281 0.09375 1.707031 0.0625 1.40625 0 C 1.113281 -0.0507812 0.851562 -0.144531 0.625 -0.28125 C 0.519531 -0.34375 0.445312 -0.414062 0.40625 -0.5 C 0.363281 -0.582031 0.347656 -0.664062 0.359375 -0.75 C 0.367188 -0.832031 0.398438 -0.898438 0.453125 -0.953125 C 0.503906 -1.015625 0.570312 -1.054688 0.65625 -1.078125 C 0.738281 -1.097656 0.832031 -1.082031 0.9375 -1.03125 C 1.175781 -0.914062 1.40625 -0.832031 1.625 -0.78125 C 1.84375 -0.738281 2.054688 -0.71875 2.265625 -0.71875 C 2.554688 -0.71875 2.773438 -0.769531 2.921875 -0.875 C 3.066406 -0.976562 3.140625 -1.113281 3.140625 -1.28125 C 3.140625 -1.414062 3.09375 -1.519531 3 -1.59375 C 2.90625 -1.675781 2.765625 -1.738281 2.578125 -1.78125 L 1.640625 -1.953125 C 1.265625 -2.023438 0.972656 -2.164062 0.765625 -2.375 C 0.566406 -2.582031 0.46875 -2.847656 0.46875 -3.171875 C 0.46875 -3.460938 0.550781 -3.71875 0.71875 -3.9375 C 0.882812 -4.15625 1.109375 -4.320312 1.390625 -4.4375 C 1.679688 -4.550781 2.015625 -4.609375 2.390625 -4.609375 C 2.660156 -4.609375 2.914062 -4.578125 3.15625 -4.515625 C 3.394531 -4.460938 3.625 -4.375 3.84375 -4.25 C 3.9375 -4.207031 4 -4.144531 4.03125 -4.0625 C 4.070312 -3.976562 4.082031 -3.894531 4.0625 -3.8125 C 4.039062 -3.726562 4 -3.65625 3.9375 -3.59375 C 3.882812 -3.53125 3.816406 -3.488281 3.734375 -3.46875 C 3.648438 -3.457031 3.554688 -3.476562 3.453125 -3.53125 C 3.265625 -3.625 3.082031 -3.691406 2.90625 -3.734375 C 2.726562 -3.773438 2.5625 -3.796875 2.40625 -3.796875 C 2.101562 -3.796875 1.878906 -3.742188 1.734375 -3.640625 C 1.585938 -3.535156 1.515625 -3.398438 1.515625 -3.234375 C 1.515625 -3.097656 1.554688 -2.988281 1.640625 -2.90625 C 1.734375 -2.820312 1.867188 -2.765625 2.046875 -2.734375 L 2.96875 -2.546875 C 3.375 -2.472656 3.675781 -2.335938 3.875 -2.140625 C 4.082031 -1.941406 4.1875 -1.675781 4.1875 -1.34375 C 4.1875 -0.894531 4.007812 -0.539062 3.65625 -0.28125 C 3.3125 -0.03125 2.84375 0.09375 2.25 0.09375 Z M 2.25 0.09375 "/></g></g></g><g fill="#edeae9" fill-opacity="1"><g transform="translate(29.417122, 19.071841)"><g><path d="M 1.171875 0.0625 C 0.984375 0.0625 0.835938 0.0078125 0.734375 -0.09375 C 0.640625 -0.207031 0.59375 -0.363281 0.59375 -0.5625 L 0.59375 -3.953125 C 0.59375 -4.160156 0.640625 -4.316406 0.734375 -4.421875 C 0.835938 -4.535156 0.984375 -4.59375 1.171875 -4.59375 C 1.359375 -4.59375 1.5 -4.535156 1.59375 -4.421875 C 1.695312 -4.316406 1.75 -4.160156 1.75 -3.953125 L 1.75 -0.5625 C 1.75 -0.363281 1.703125 -0.207031 1.609375 -0.09375 C 1.515625 0.0078125 1.367188 0.0625 1.171875 0.0625 Z M 1.171875 -5.453125 C 0.953125 -5.453125 0.78125 -5.503906 0.65625 -5.609375 C 0.539062 -5.710938 0.484375 -5.863281 0.484375 -6.0625 C 0.484375 -6.257812 0.539062 -6.410156 0.65625 -6.515625 C 0.78125 -6.617188 0.953125 -6.671875 1.171875 -6.671875 C 1.390625 -6.671875 1.554688 -6.617188 1.671875 -6.515625 C 1.796875 -6.410156 1.859375 -6.257812 1.859375 -6.0625 C 1.859375 -5.863281 1.796875 -5.710938 1.671875 -5.609375 C 1.554688 -5.503906 1.390625 -5.453125 1.171875 -5.453125 Z M 1.171875 -5.453125 "/></g></g></g><g fill="#edeae9" fill-opacity="1"><g transform="translate(31.777008, 19.071841)"><g><path d="M 2.703125 1.75 C 2.367188 1.75 2.046875 1.71875 1.734375 1.65625 C 1.429688 1.601562 1.148438 1.507812 0.890625 1.375 C 0.773438 1.3125 0.695312 1.238281 0.65625 1.15625 C 0.613281 1.070312 0.597656 0.984375 0.609375 0.890625 C 0.628906 0.804688 0.671875 0.726562 0.734375 0.65625 C 0.796875 0.59375 0.867188 0.546875 0.953125 0.515625 C 1.035156 0.492188 1.125 0.507812 1.21875 0.5625 C 1.488281 0.695312 1.742188 0.78125 1.984375 0.8125 C 2.234375 0.851562 2.445312 0.875 2.625 0.875 C 3.03125 0.875 3.335938 0.773438 3.546875 0.578125 C 3.753906 0.378906 3.859375 0.0820312 3.859375 -0.3125 L 3.859375 -1.140625 L 3.9375 -1.140625 C 3.84375 -0.828125 3.648438 -0.578125 3.359375 -0.390625 C 3.066406 -0.203125 2.738281 -0.109375 2.375 -0.109375 C 1.957031 -0.109375 1.597656 -0.203125 1.296875 -0.390625 C 0.992188 -0.578125 0.757812 -0.835938 0.59375 -1.171875 C 0.425781 -1.515625 0.34375 -1.914062 0.34375 -2.375 C 0.34375 -2.707031 0.390625 -3.007812 0.484375 -3.28125 C 0.585938 -3.5625 0.726562 -3.800781 0.90625 -4 C 1.082031 -4.195312 1.296875 -4.347656 1.546875 -4.453125 C 1.796875 -4.554688 2.070312 -4.609375 2.375 -4.609375 C 2.75 -4.609375 3.078125 -4.515625 3.359375 -4.328125 C 3.648438 -4.140625 3.84375 -3.894531 3.9375 -3.59375 L 3.84375 -3.359375 L 3.84375 -4.015625 C 3.84375 -4.203125 3.890625 -4.34375 3.984375 -4.4375 C 4.085938 -4.539062 4.226562 -4.59375 4.40625 -4.59375 C 4.59375 -4.59375 4.734375 -4.539062 4.828125 -4.4375 C 4.929688 -4.34375 4.984375 -4.203125 4.984375 -4.015625 L 4.984375 -0.453125 C 4.984375 0.273438 4.785156 0.820312 4.390625 1.1875 C 4.003906 1.5625 3.441406 1.75 2.703125 1.75 Z M 2.6875 -0.984375 C 2.925781 -0.984375 3.128906 -1.039062 3.296875 -1.15625 C 3.472656 -1.269531 3.609375 -1.425781 3.703125 -1.625 C 3.796875 -1.832031 3.84375 -2.082031 3.84375 -2.375 C 3.84375 -2.789062 3.738281 -3.117188 3.53125 -3.359375 C 3.320312 -3.609375 3.039062 -3.734375 2.6875 -3.734375 C 2.445312 -3.734375 2.238281 -3.675781 2.0625 -3.5625 C 1.882812 -3.457031 1.75 -3.300781 1.65625 -3.09375 C 1.5625 -2.894531 1.515625 -2.65625 1.515625 -2.375 C 1.515625 -1.945312 1.617188 -1.609375 1.828125 -1.359375 C 2.035156 -1.109375 2.320312 -0.984375 2.6875 -0.984375 Z M 2.6875 -0.984375 "/></g></g></g><g fill="#edeae9" fill-opacity="1"><g transform="translate(37.366699, 19.071841)"><g><path d="M 1.171875 0.078125 C 0.984375 0.078125 0.835938 0.0234375 0.734375 -0.078125 C 0.640625 -0.179688 0.59375 -0.328125 0.59375 -0.515625 L 0.59375 -6.015625 C 0.59375 -6.203125 0.640625 -6.34375 0.734375 -6.4375 C 0.835938 -6.539062 0.984375 -6.59375 1.171875 -6.59375 C 1.359375 -6.59375 1.5 -6.539062 1.59375 -6.4375 C 1.695312 -6.34375 1.75 -6.203125 1.75 -6.015625 L 1.75 -3.609375 L 1.625 -3.609375 C 1.757812 -3.941406 1.96875 -4.191406 2.25 -4.359375 C 2.539062 -4.523438 2.867188 -4.609375 3.234375 -4.609375 C 3.597656 -4.609375 3.894531 -4.539062 4.125 -4.40625 C 4.363281 -4.269531 4.539062 -4.066406 4.65625 -3.796875 C 4.78125 -3.523438 4.84375 -3.175781 4.84375 -2.75 L 4.84375 -0.515625 C 4.84375 -0.328125 4.789062 -0.179688 4.6875 -0.078125 C 4.59375 0.0234375 4.453125 0.078125 4.265625 0.078125 C 4.078125 0.078125 3.929688 0.0234375 3.828125 -0.078125 C 3.734375 -0.179688 3.6875 -0.328125 3.6875 -0.515625 L 3.6875 -2.703125 C 3.6875 -3.054688 3.617188 -3.3125 3.484375 -3.46875 C 3.347656 -3.625 3.144531 -3.703125 2.875 -3.703125 C 2.53125 -3.703125 2.253906 -3.597656 2.046875 -3.390625 C 1.847656 -3.179688 1.75 -2.898438 1.75 -2.546875 L 1.75 -0.515625 C 1.75 -0.117188 1.554688 0.078125 1.171875 0.078125 Z M 1.171875 0.078125 "/></g></g></g><g fill="#edeae9" fill-opacity="1"><g transform="translate(42.780556, 19.071841)"><g><path d="M 2.671875 0.09375 C 2.273438 0.09375 1.941406 0.0234375 1.671875 -0.109375 C 1.398438 -0.242188 1.195312 -0.441406 1.0625 -0.703125 C 0.9375 -0.960938 0.875 -1.289062 0.875 -1.6875 L 0.875 -3.65625 L 0.390625 -3.65625 C 0.242188 -3.65625 0.128906 -3.691406 0.046875 -3.765625 C -0.0234375 -3.847656 -0.0625 -3.957031 -0.0625 -4.09375 C -0.0625 -4.226562 -0.0234375 -4.332031 0.046875 -4.40625 C 0.128906 -4.476562 0.242188 -4.515625 0.390625 -4.515625 L 0.875 -4.515625 L 0.875 -5.359375 C 0.875 -5.554688 0.925781 -5.703125 1.03125 -5.796875 C 1.132812 -5.898438 1.28125 -5.953125 1.46875 -5.953125 C 1.644531 -5.953125 1.78125 -5.898438 1.875 -5.796875 C 1.976562 -5.703125 2.03125 -5.554688 2.03125 -5.359375 L 2.03125 -4.515625 L 3.015625 -4.515625 C 3.160156 -4.515625 3.273438 -4.476562 3.359375 -4.40625 C 3.441406 -4.332031 3.484375 -4.226562 3.484375 -4.09375 C 3.484375 -3.957031 3.441406 -3.847656 3.359375 -3.765625 C 3.273438 -3.691406 3.160156 -3.65625 3.015625 -3.65625 L 2.03125 -3.65625 L 2.03125 -1.75 C 2.03125 -1.445312 2.09375 -1.222656 2.21875 -1.078125 C 2.351562 -0.929688 2.566406 -0.859375 2.859375 -0.859375 C 2.960938 -0.859375 3.050781 -0.867188 3.125 -0.890625 C 3.207031 -0.910156 3.28125 -0.921875 3.34375 -0.921875 C 3.414062 -0.929688 3.476562 -0.910156 3.53125 -0.859375 C 3.582031 -0.804688 3.609375 -0.695312 3.609375 -0.53125 C 3.609375 -0.40625 3.585938 -0.296875 3.546875 -0.203125 C 3.503906 -0.109375 3.429688 -0.046875 3.328125 -0.015625 C 3.242188 0.015625 3.140625 0.0390625 3.015625 0.0625 C 2.890625 0.0820312 2.773438 0.09375 2.671875 0.09375 Z M 2.671875 0.09375 "/></g></g></g><g fill="#edeae9" fill-opacity="1"><g transform="translate(46.334267, 19.071841)"><g><path d="M 2.828125 0.09375 C 2.316406 0.09375 1.875 0 1.5 -0.1875 C 1.132812 -0.382812 0.847656 -0.65625 0.640625 -1 C 0.441406 -1.351562 0.34375 -1.769531 0.34375 -2.25 C 0.34375 -2.71875 0.441406 -3.128906 0.640625 -3.484375 C 0.835938 -3.835938 1.109375 -4.113281 1.453125 -4.3125 C 1.796875 -4.507812 2.1875 -4.609375 2.625 -4.609375 C 2.9375 -4.609375 3.21875 -4.554688 3.46875 -4.453125 C 3.726562 -4.347656 3.945312 -4.195312 4.125 -4 C 4.3125 -3.800781 4.453125 -3.5625 4.546875 -3.28125 C 4.648438 -3.007812 4.703125 -2.695312 4.703125 -2.34375 C 4.703125 -2.226562 4.660156 -2.140625 4.578125 -2.078125 C 4.503906 -2.023438 4.394531 -2 4.25 -2 L 1.28125 -2 L 1.28125 -2.65625 L 3.890625 -2.65625 L 3.734375 -2.53125 C 3.734375 -2.8125 3.691406 -3.046875 3.609375 -3.234375 C 3.523438 -3.429688 3.40625 -3.578125 3.25 -3.671875 C 3.09375 -3.773438 2.894531 -3.828125 2.65625 -3.828125 C 2.40625 -3.828125 2.1875 -3.765625 2 -3.640625 C 1.820312 -3.523438 1.679688 -3.359375 1.578125 -3.140625 C 1.484375 -2.921875 1.4375 -2.660156 1.4375 -2.359375 L 1.4375 -2.296875 C 1.4375 -1.785156 1.554688 -1.40625 1.796875 -1.15625 C 2.035156 -0.90625 2.382812 -0.78125 2.84375 -0.78125 C 3.007812 -0.78125 3.191406 -0.800781 3.390625 -0.84375 C 3.585938 -0.882812 3.773438 -0.953125 3.953125 -1.046875 C 4.085938 -1.128906 4.203125 -1.164062 4.296875 -1.15625 C 4.398438 -1.144531 4.476562 -1.109375 4.53125 -1.046875 C 4.59375 -0.984375 4.628906 -0.90625 4.640625 -0.8125 C 4.648438 -0.726562 4.628906 -0.640625 4.578125 -0.546875 C 4.535156 -0.453125 4.460938 -0.375 4.359375 -0.3125 C 4.140625 -0.175781 3.890625 -0.0703125 3.609375 0 C 3.328125 0.0625 3.066406 0.09375 2.828125 0.09375 Z M 2.828125 0.09375 "/></g></g></g><g clip-path="url(#cf08b0e1fa)"><g fill="#edeae9" fill-opacity="1"><g transform="translate(51.350182, 19.071841)"><g><path d="M 1.1875 0.078125 C 1 0.078125 0.851562 0.0234375 0.75 -0.078125 C 0.644531 -0.179688 0.59375 -0.328125 0.59375 -0.515625 L 0.59375 -4.015625 C 0.59375 -4.203125 0.640625 -4.34375 0.734375 -4.4375 C 0.835938 -4.539062 0.984375 -4.59375 1.171875 -4.59375 C 1.347656 -4.59375 1.484375 -4.539062 1.578125 -4.4375 C 1.679688 -4.34375 1.734375 -4.203125 1.734375 -4.015625 L 1.734375 -3.4375 L 1.640625 -3.4375 C 1.722656 -3.800781 1.890625 -4.078125 2.140625 -4.265625 C 2.398438 -4.460938 2.738281 -4.578125 3.15625 -4.609375 C 3.28125 -4.628906 3.378906 -4.597656 3.453125 -4.515625 C 3.535156 -4.441406 3.582031 -4.320312 3.59375 -4.15625 C 3.601562 -4.007812 3.566406 -3.882812 3.484375 -3.78125 C 3.398438 -3.6875 3.28125 -3.628906 3.125 -3.609375 L 2.90625 -3.59375 C 2.53125 -3.5625 2.25 -3.445312 2.0625 -3.25 C 1.875 -3.050781 1.78125 -2.78125 1.78125 -2.4375 L 1.78125 -0.515625 C 1.78125 -0.328125 1.726562 -0.179688 1.625 -0.078125 C 1.53125 0.0234375 1.382812 0.078125 1.1875 0.078125 Z M 1.1875 0.078125 "/></g></g></g></g></svg>